<svg width="60" height="60" viewBox="0 0 60 60" fill="none" xmlns="http://www.w3.org/2000/svg">
<path d="M33.0843 0.00219727C36.4605 0.00777727 38.1714 0.0256573 39.6498 0.0696673L40.2321 0.0886874C40.9047 0.112597 41.5683 0.142597 42.3684 0.180097C45.5607 0.327607 47.7384 0.832597 49.6509 1.5751C51.6282 2.33761 53.2983 3.3676 54.9657 5.03512C56.6307 6.70261 57.6609 8.3776 58.4259 10.3501C59.1657 12.2601 59.6709 14.4401 59.8209 17.6326C59.8566 18.4326 59.8854 19.0962 59.9091 19.7689L59.928 20.3512C59.9718 21.8294 59.9919 23.5406 59.9982 26.9169L60.0006 29.1537C60.0009 29.427 60.0009 29.709 60.0009 30L60.0006 30.8463L59.9988 33.0834C59.9931 36.4596 59.9754 38.1708 59.9313 39.6489L59.9121 40.2312C59.8884 40.9041 59.8584 41.5677 59.8209 42.3675C59.6733 45.5601 59.1657 47.7375 58.4259 49.65C57.6633 51.6276 56.6307 53.2977 54.9657 54.9651C53.2983 56.6301 51.6207 57.66 49.6509 58.425C47.7384 59.1651 45.5607 59.67 42.3684 59.82C41.5683 59.8557 40.9047 59.8848 40.2321 59.9082L39.6498 59.9271C38.1714 59.9712 36.4605 59.991 33.0843 59.9976L30.8472 60C30.5739 60 30.2919 60 30.0009 60H29.1546L26.9175 59.9979C23.5413 59.9925 21.8301 59.9745 20.3519 59.9304L19.7697 59.9115C19.0969 59.8875 18.4333 59.8575 17.6333 59.82C14.4408 59.6727 12.2658 59.1651 10.3508 58.425C8.37581 57.6627 6.70331 56.6301 5.03582 54.9651C3.36833 53.2977 2.34083 51.6201 1.57583 49.65C0.83333 47.7375 0.33083 45.5601 0.18083 42.3675C0.14519 41.5677 0.11612 40.9041 0.0925698 40.2312L0.0737 39.6489C0.02981 38.1708 0.00980022 36.4596 0.00332022 33.0834L0.00292969 26.9169C0.00850969 23.5406 0.0263597 21.8294 0.0703697 20.3512L0.0894198 19.7689C0.11333 19.0962 0.14333 18.4326 0.18083 17.6326C0.32831 14.4376 0.83333 12.2626 1.57583 10.3501C2.33831 8.37511 3.36833 6.70261 5.03582 5.03512C6.70331 3.3676 8.37833 2.3401 10.3508 1.5751C12.2633 0.832597 14.4383 0.330097 17.6333 0.180097C18.4333 0.144487 19.0969 0.115417 19.7697 0.0918674L20.3519 0.0729969C21.8301 0.0290769 23.5413 0.00906708 26.9175 0.00258708L33.0843 0.00219727ZM30.0009 15.0001C21.7121 15.0001 15.0008 21.7187 15.0008 30C15.0008 38.2887 21.7194 45 30.0009 45C38.2896 45 45.0009 38.2815 45.0009 30C45.0009 21.7114 38.2821 15.0001 30.0009 15.0001ZM30.0009 21.0001C34.9716 21.0001 39.0009 25.0281 39.0009 30C39.0009 34.9707 34.9728 39 30.0009 39C25.0302 39 21.0008 34.9722 21.0008 30C21.0008 25.0293 25.0287 21.0001 30.0009 21.0001ZM45.7509 10.5001C43.683 10.5001 42.0009 12.1798 42.0009 14.2475C42.0009 16.3153 43.6806 17.9976 45.7509 17.9976C47.8185 17.9976 49.5009 16.3179 49.5009 14.2475C49.5009 12.1798 47.8158 10.4975 45.7509 10.5001Z" fill="#FB5000"/>
</svg>
