<svg width="845" height="577" viewBox="0 0 845 577" fill="none" xmlns="http://www.w3.org/2000/svg">
<path d="M382.329 131.878V156.547H378.544C371.145 156.547 364.05 159.496 358.817 164.745C353.585 169.995 350.644 177.115 350.642 184.54V315.566H334.61C325.431 315.566 316.628 311.907 310.137 305.393C303.646 298.879 300 290.045 300 280.833V131.878H382.329Z" fill="#0E1B26"/>
<path d="M544.233 157.782C544.28 187.275 536.05 216.185 520.484 241.202C518.565 244.286 516.544 247.298 514.422 250.238C485.86 289.82 439.431 315.567 387.01 315.567C383.376 315.567 379.771 315.444 376.194 315.197V233.943H387.208C428.743 233.943 463.002 200.669 463.642 158.992C463.642 158.591 463.642 158.178 463.642 157.782C463.642 155.899 463.576 154.032 463.442 152.181C462.866 144.093 461.012 136.148 457.951 128.644C446.521 100.608 419.065 80.8638 387.01 80.8638C383.392 80.8623 379.778 81.1155 376.194 81.6207V0.366329C379.771 0.12211 383.376 0 387.01 0C473.842 0 544.233 70.642 544.233 157.782Z" fill="#0E1B26"/>
<path d="M433.537 177.794C433.537 189.973 428.716 201.654 420.135 210.266C411.553 218.878 399.915 223.717 387.779 223.718H377.333V131.878H387.789C396.4 131.876 404.836 134.313 412.128 138.908C419.421 143.502 425.273 150.068 429.013 157.852C430.712 161.373 431.95 165.1 432.696 168.939C433.26 171.857 433.542 174.822 433.537 177.794Z" fill="#0E1B26"/>
<path d="M432.685 168.931C426.775 177.673 418.045 184.105 407.964 187.145C397.883 190.185 387.066 189.647 377.333 185.622V131.878H387.789C396.4 131.876 404.836 134.313 412.128 138.908C419.421 143.502 425.273 150.068 429.013 157.852C430.708 161.371 431.942 165.095 432.685 168.931Z" fill="#3DDCCD"/>
<path d="M520.698 233.992C520.698 236.413 520.627 238.816 520.484 241.203C518.565 244.287 516.544 247.299 514.422 250.239C485.86 289.821 439.431 315.567 387.01 315.567C383.376 315.567 379.771 315.444 376.194 315.198V233.944H387.208C396.986 233.953 406.676 232.084 415.753 228.435C443.376 217.309 463.156 190.567 463.642 158.993C463.642 158.591 463.642 158.179 463.642 157.782C463.642 155.899 463.576 154.032 463.442 152.182C462.866 144.093 461.012 136.149 457.951 128.645C476.928 138.864 492.785 154.06 503.833 172.613C514.88 191.166 520.704 212.38 520.682 233.992H520.698Z" fill="#FD5038"/>
<path d="M513.271 192.342C508.353 220.696 483.709 242.255 454.055 242.255C440.077 242.265 426.534 237.377 415.765 228.435C443.388 217.31 463.167 190.567 463.654 158.993C463.654 158.591 463.654 158.179 463.654 157.782C463.654 155.899 463.587 154.032 463.454 152.182C462.878 144.093 461.024 136.149 457.962 128.645C483.486 142.443 503.142 165.081 513.271 192.342Z" fill="#FEBC40"/>
<path d="M427.084 51.0608C427.084 79.2599 404.304 102.122 376.205 102.122C367.521 102.138 358.979 99.9098 351.402 95.6526C350.729 95.2761 350.066 94.8846 349.414 94.4776C342.043 89.9022 335.96 83.5117 331.742 75.9126C327.525 68.3136 325.314 59.7589 325.319 51.0608C325.319 22.8616 348.1 7.9806e-07 376.199 7.9806e-07C385.773 -0.00169751 395.154 2.70719 403.262 7.81541C411.371 12.9236 417.879 20.224 422.039 28.8776C422.769 30.3953 423.425 31.9529 424.007 33.5503C426.049 39.1611 427.09 45.088 427.084 51.0608Z" fill="#FEBC40"/>
<path d="M427.085 51.0617C427.085 79.2608 404.305 102.122 376.205 102.122C367.521 102.138 358.98 99.9103 351.402 95.6531C350.73 95.277 350.068 94.8855 349.415 94.4785C352.443 84.1669 357.675 74.569 366.72 68.8571C378.293 61.5467 387.968 65.7526 400.836 59.5713C408.507 55.8861 417.059 48.6304 424.011 33.551C426.051 39.162 427.092 45.0889 427.085 51.0617Z" fill="#FD5038"/>
<path d="M27.4937 395.04V450.146H54.9879C58.7556 450.146 62.3002 449.442 65.6211 448.034C68.942 446.562 71.8479 444.578 74.3386 442.082C76.8308 439.586 78.7766 436.674 80.184 433.346C81.6529 429.954 82.3874 426.369 82.3874 422.593C82.3874 418.817 81.6529 415.265 80.184 411.937C78.7766 408.545 76.8308 405.601 74.3386 403.104C71.8479 400.608 68.942 398.656 65.6211 397.248C62.3002 395.776 58.7556 395.04 54.9879 395.04H27.4937ZM27.4937 505.156H0V367.487H54.9879C60.033 367.487 64.8866 368.159 69.5488 369.503C74.2109 370.783 78.5535 372.639 82.5758 375.072C86.6634 377.44 90.3704 380.32 93.6889 383.712C97.0729 387.04 99.9492 390.752 102.31 394.848C104.737 398.944 106.59 403.329 107.867 408.001C109.209 412.673 109.878 417.537 109.878 422.593C109.878 430.145 108.444 437.282 105.567 444.002C102.695 450.658 98.7687 456.482 93.7851 461.475C88.8053 466.467 82.9603 470.403 76.254 473.283C69.6126 476.163 62.5237 477.603 54.9879 477.603H27.4937V505.156Z" fill="#0E1B26"/>
<path d="M153.562 395.04V450.146H181.056C184.825 450.146 188.37 449.442 191.689 448.034C195.011 446.562 197.918 444.578 200.406 442.082C202.898 439.586 204.848 436.674 206.251 433.346C207.72 429.954 208.455 426.369 208.455 422.593C208.455 418.817 207.72 415.265 206.251 411.937C204.848 408.545 202.898 405.601 200.406 403.104C197.918 400.608 195.011 398.656 191.689 397.248C188.37 395.776 184.825 395.04 181.056 395.04H153.562ZM153.562 505.156H126.071V367.487H181.056C186.102 367.487 190.954 368.159 195.619 369.503C200.28 370.783 204.625 372.639 208.647 375.072C212.735 377.44 216.438 380.32 219.76 383.712C223.144 387.04 226.017 390.752 228.382 394.848C230.808 398.944 232.662 403.329 233.938 408.001C235.28 412.673 235.949 417.537 235.949 422.593C235.949 427.329 235.342 431.937 234.13 436.418C232.981 440.898 231.289 445.154 229.051 449.186C226.882 453.218 224.198 456.93 221.006 460.322C217.811 463.715 214.234 466.659 210.274 469.155L225.505 505.156H196.288L184.313 477.411L153.562 477.603V505.156Z" fill="#0E1B26"/>
<path d="M388.649 436.898C388.649 443.426 387.787 449.731 386.061 455.811C384.403 461.827 382.039 467.491 378.974 472.803C375.909 478.052 372.202 482.852 367.861 487.204C363.519 491.556 358.728 495.3 353.49 498.436C348.253 501.508 342.604 503.876 336.536 505.54C330.468 507.268 324.177 508.132 317.663 508.132C311.149 508.132 304.858 507.268 298.79 505.54C292.787 503.876 287.134 501.508 281.836 498.436C276.598 495.3 271.807 491.556 267.465 487.204C263.124 482.852 259.386 478.052 256.256 472.803C253.191 467.491 250.796 461.827 249.073 455.811C247.412 449.731 246.581 443.426 246.581 436.898C246.581 430.37 247.412 424.066 249.073 417.985C250.796 411.905 253.191 406.241 256.256 400.993C259.386 395.745 263.124 390.945 267.465 386.592C271.807 382.24 276.598 378.528 281.836 375.456C287.134 372.384 292.787 370.016 298.79 368.352C304.858 366.624 311.149 365.76 317.663 365.76C324.177 365.76 330.468 366.624 336.536 368.352C342.604 370.016 348.253 372.384 353.49 375.456C358.728 378.528 363.519 382.24 367.861 386.592C372.202 390.945 375.909 395.745 378.974 400.993C382.039 406.241 384.403 411.905 386.061 417.985C387.787 424.066 388.649 430.37 388.649 436.898ZM361.347 436.898C361.347 430.882 360.197 425.218 357.897 419.906C355.598 414.529 352.471 409.889 348.511 405.985C344.615 402.017 339.985 398.881 334.621 396.577C329.318 394.273 323.666 393.121 317.663 393.121C311.595 393.121 305.911 394.273 300.613 396.577C295.31 398.881 290.68 402.017 286.719 405.985C282.762 409.889 279.632 414.529 277.333 419.906C275.033 425.218 273.883 430.882 273.883 436.898C273.883 442.914 275.033 448.578 277.333 453.891C279.632 459.139 282.762 463.747 286.719 467.715C290.68 471.683 295.31 474.819 300.613 477.124C305.911 479.428 311.595 480.58 317.663 480.58C323.666 480.58 329.318 479.428 334.621 477.124C339.985 474.819 344.615 471.683 348.511 467.715C352.471 463.747 355.598 459.139 357.897 453.891C360.197 448.578 361.347 442.914 361.347 436.898Z" fill="#0E1B26"/>
<path d="M509.26 505.156H475.92L449.479 460.707L422.946 505.156H389.799L431.948 436.322L389.799 367.487H422.946L449.479 411.937L475.92 367.487H509.26L467.106 436.322L509.26 505.156Z" fill="#0E1B26"/>
<path d="M549.59 505.156H522.096V367.487H549.59V505.156Z" fill="#0E1B26"/>
<path d="M711.484 505.157H684.086V406.849C684.086 404.929 683.705 403.137 682.936 401.473C682.236 399.809 681.244 398.369 679.968 397.153C678.756 395.873 677.318 394.881 675.657 394.177C673.996 393.472 672.208 393.121 670.293 393.121C668.378 393.121 666.59 393.472 664.928 394.177C663.267 394.881 661.798 395.873 660.522 397.153C659.306 398.369 658.349 399.809 657.649 401.473C656.945 403.137 656.595 404.929 656.595 406.849V505.157H629.101V406.849C629.101 404.929 628.747 403.137 628.047 401.473C627.344 399.809 626.355 398.369 625.075 397.153C623.863 395.873 622.425 394.881 620.764 394.177C619.107 393.472 617.319 393.121 615.4 393.121C613.485 393.121 611.697 393.472 610.035 394.177C608.374 394.881 606.905 395.873 605.629 397.153C604.417 398.369 603.46 399.809 602.756 401.473C602.052 403.137 601.703 404.929 601.703 406.849V505.157H574.208V406.849C574.208 401.153 575.262 395.809 577.369 390.817C579.542 385.76 582.479 381.376 586.182 377.664C589.951 373.888 594.327 370.944 599.307 368.832C604.352 366.656 609.716 365.567 615.4 365.567C620.51 365.567 625.429 366.496 630.155 368.352C634.88 370.144 639.126 372.768 642.894 376.224C646.663 372.768 650.877 370.144 655.542 368.352C660.268 366.496 665.182 365.567 670.293 365.567C675.976 365.567 681.31 366.656 686.289 368.832C691.335 370.944 695.711 373.888 699.414 377.664C703.182 381.376 706.12 385.76 708.227 390.817C710.4 395.809 711.484 401.153 711.484 406.849V505.157Z" fill="#0E1B26"/>
<path d="M816.96 450.146V422.593C816.96 418.817 816.225 415.265 814.756 411.937C813.349 408.545 811.403 405.601 808.911 403.104C806.419 400.608 803.482 398.656 800.098 397.248C796.779 395.776 793.234 395.04 789.465 395.04C785.697 395.04 782.12 395.776 778.736 397.248C775.414 398.656 772.507 400.608 770.019 403.104C767.527 405.601 765.547 408.545 764.078 411.937C762.674 415.265 761.971 418.817 761.971 422.593V450.146H816.96ZM844.454 505.156H816.96V477.603H761.971V505.156H734.572V422.593C734.572 414.977 736.01 407.841 738.883 401.184C741.759 394.464 745.655 388.608 750.573 383.616C755.553 378.624 761.363 374.687 768.008 371.807C774.71 368.927 781.867 367.487 789.465 367.487C797.064 367.487 804.185 368.927 810.826 371.807C817.533 374.687 823.378 378.624 828.357 383.616C833.341 388.608 837.267 394.464 840.14 401.184C843.016 407.841 844.454 414.977 844.454 422.593V505.156Z" fill="#0E1B26"/>
<path d="M0.109375 525.382H17.3255C24.4864 525.382 29.8819 527.201 33.5116 530.838C37.19 534.574 39.0293 541.038 39.0293 550.23C39.0293 562.125 35.8657 569.694 29.5385 572.939C26.3995 574.61 22.255 575.446 17.1048 575.446H0.109375V525.382ZM5.18606 529.29V571.538H15.4863C22.4999 571.538 27.3805 569.891 30.1272 566.598C32.8248 563.255 34.1733 557.799 34.1733 550.23C34.1733 543.348 33.0209 538.187 30.7156 534.746C28.3122 531.109 23.8735 529.29 17.399 529.29H5.18606Z" fill="#0E1B26"/>
<path d="M80.922 575.446H75.9922V525.382H80.922V575.446Z" fill="#0E1B26"/>
<path d="M155.95 536.073L151.758 537.99C149.405 531.649 145.064 528.479 138.734 528.479C133.243 528.479 129.221 530.298 126.671 533.935C124.118 537.572 122.845 543.201 122.845 550.819C122.845 557.849 123.972 563.108 126.229 566.598C128.532 570.383 132.532 572.275 138.219 572.275C141.361 572.275 144.279 571.292 146.975 569.326C149.92 567.114 151.389 564.091 151.389 560.257V552.736H138.661V548.46H156.319V555.538L155.95 575.446H152.789L151.685 568.957C150.359 571.12 148.425 572.889 145.871 574.266C143.372 575.593 140.622 576.256 137.631 576.256C124.291 576.256 117.619 567.753 117.619 550.746C117.619 541.554 119.557 534.795 123.433 530.47C127.11 526.439 132.235 524.424 138.811 524.424C142.783 524.424 146.263 525.432 149.255 527.447C152.247 529.413 154.481 532.288 155.95 536.073Z" fill="#0E1B26"/>
<path d="M198.529 575.446H193.6V525.382H198.529V575.446Z" fill="#0E1B26"/>
<path d="M231.623 529.216V525.382H269.219V529.216H253.034V575.446H247.808V529.216H231.623Z" fill="#0E1B26"/>
<path d="M315.183 534.23C314.303 537.032 313.738 538.9 313.492 539.834L307.681 558.045H326.147L320.336 539.834C319.01 535.901 317.833 532.24 316.802 528.848C316.36 530.47 315.822 532.264 315.183 534.23ZM297.16 575.446L313.788 525.382H320.336L336.96 575.446H331.884L327.25 561.805H306.504L302.163 575.446H297.16Z" fill="#0E1B26"/>
<path d="M400.855 575.446H370.322V525.382H375.398V571.612H400.855V575.446Z" fill="#0E1B26"/>
<path d="M475.354 525.382H492.57C499.734 525.382 505.129 527.201 508.756 530.838C512.436 534.574 514.274 541.038 514.274 550.23C514.274 562.125 511.113 569.694 504.783 572.939C501.645 574.61 497.5 575.446 492.351 575.446H475.354V525.382ZM480.43 529.29V571.538H490.732C497.746 571.538 502.626 569.891 505.372 566.598C508.071 563.255 509.421 557.799 509.421 550.23C509.421 543.348 508.267 538.187 505.96 534.746C503.557 531.109 499.119 529.29 492.643 529.29H480.43Z" fill="#0E1B26"/>
<path d="M584.125 575.446H550.647V525.382H583.756V529.216H555.727V546.764H580.076V550.746H555.727V571.612H584.125V575.446Z" fill="#0E1B26"/>
<path d="M650.508 533.346L646.901 536.074C645.579 533.763 643.763 531.969 641.456 530.691C639.203 529.413 636.676 528.774 633.881 528.774C630.151 528.774 627.209 529.462 625.052 530.838C622.891 532.215 621.814 534.23 621.814 536.884C621.814 538.9 622.622 540.595 624.24 541.972C625.663 543.152 627.578 544.135 629.982 544.921C630.324 545.019 631.327 545.364 632.996 545.953C634.711 546.494 635.865 546.863 636.453 547.059C637.976 547.698 639.226 548.215 640.206 548.608C642.61 549.591 644.644 550.623 646.313 551.704C648.028 552.835 649.328 554.236 650.212 555.907C651.143 557.676 651.612 559.717 651.612 562.026C651.612 566.45 649.943 569.94 646.609 572.496C643.271 575.003 638.761 576.256 633.069 576.256C629.685 576.256 626.498 575.642 623.506 574.413C619.926 572.939 617.326 570.825 615.708 568.072C614.677 566.45 613.989 564.656 613.646 562.69L617.842 560.847C619.853 568.269 625.052 571.98 633.439 571.98C636.088 571.98 638.492 571.538 640.649 570.653C643.102 569.719 644.767 568.195 645.652 566.082C646.14 565.05 646.386 563.747 646.386 562.174C646.386 560.749 646.017 559.2 645.282 557.529C644.99 556.988 644.425 556.423 643.59 555.833C642.66 555.243 642.022 554.801 641.679 554.506C641.137 554.162 639.203 553.326 635.865 551.999C635.227 551.803 633.977 551.36 632.112 550.672C631.77 550.623 631.524 550.549 631.378 550.451C629.316 549.714 627.774 549.148 626.744 548.755C625.763 548.362 624.537 547.796 623.064 547.059C621.641 546.322 620.564 545.634 619.826 544.995C619.141 544.307 618.48 543.446 617.842 542.414C617.253 541.382 616.861 540.227 616.665 538.949C616.615 538.605 616.588 538.04 616.588 537.253C616.588 533.075 618.307 529.905 621.741 527.742C624.929 525.726 628.755 524.719 633.216 524.719C641.164 524.719 646.924 527.594 650.508 533.346Z" fill="#0E1B26"/>
<path d="M691.592 575.446H686.662V525.382H691.592V575.446Z" fill="#0E1B26"/>
<path d="M766.624 536.073L762.432 537.99C760.075 531.649 755.734 528.479 749.408 528.479C743.913 528.479 739.895 530.298 737.341 533.935C734.792 537.572 733.515 543.201 733.515 550.819C733.515 557.849 734.646 563.108 736.903 566.598C739.206 570.383 743.205 572.275 748.893 572.275C752.031 572.275 754.949 571.292 757.649 569.326C760.59 567.114 762.063 564.091 762.063 560.257V552.736H749.335V548.46H766.993V555.538L766.624 575.446H763.459L762.355 568.957C761.033 571.12 759.094 572.889 756.545 574.266C754.042 575.593 751.296 576.256 748.304 576.256C734.965 576.256 728.293 567.753 728.293 550.746C728.293 541.554 730.231 534.795 734.103 530.47C737.783 526.439 742.909 524.424 749.481 524.424C753.453 524.424 756.937 525.432 759.929 527.447C762.921 529.413 765.151 532.288 766.624 536.073Z" fill="#0E1B26"/>
<path d="M803.686 575.446V525.382H809.277L840.101 567.851V525.382H844.516V575.446H839.955L808.246 531.355V575.446H803.686Z" fill="#0E1B26"/>
</svg>
